<svg width="17" height="14" viewBox="0 0 17 14" fill="none" xmlns="http://www.w3.org/2000/svg">
<path d="M16.2723 1.86984C15.8237 2.52609 15.2813 3.08524 14.6451 3.54729C14.6518 3.64104 14.6551 3.78167 14.6551 3.96917C14.6551 4.8397 14.5279 5.71024 14.2734 6.58078C14.019 7.44461 13.6306 8.27497 13.1083 9.07185C12.5926 9.86872 11.9766 10.5752 11.26 11.1913C10.5435 11.8006 9.67969 12.2895 8.66853 12.6578C7.65737 13.0194 6.57589 13.2002 5.42411 13.2002C3.60938 13.2002 1.94866 12.7147 0.441964 11.7437C0.676339 11.7705 0.9375 11.7839 1.22545 11.7839C2.73214 11.7839 4.07478 11.3218 5.25335 10.3977C4.55022 10.3843 3.92076 10.1701 3.36496 9.75488C2.80915 9.33301 2.42746 8.79729 2.21987 8.14774C2.44085 8.18122 2.64509 8.19796 2.83259 8.19796C3.12054 8.19796 3.40513 8.16113 3.68638 8.08747C2.93638 7.93345 2.31362 7.5618 1.81808 6.97252C1.32924 6.37653 1.08482 5.6868 1.08482 4.90332V4.86314C1.54018 5.11761 2.02902 5.25488 2.55134 5.27497C2.10938 4.98033 1.75781 4.59528 1.49665 4.11984C1.23549 3.64439 1.10491 3.12877 1.10491 2.57296C1.10491 1.98368 1.25223 1.43792 1.54688 0.935686C2.35714 1.93345 3.34152 2.73368 4.5 3.33636C5.66518 3.93234 6.91071 4.26381 8.23661 4.33078C8.18304 4.07631 8.15625 3.82854 8.15625 3.58747C8.15625 2.69015 8.47098 1.92676 9.10045 1.29729C9.73661 0.661132 10.5033 0.343052 11.4007 0.343052C12.3382 0.343052 13.1283 0.68457 13.7712 1.36761C14.5011 1.22698 15.1875 0.96582 15.8304 0.584124C15.5826 1.35421 15.1071 1.9502 14.404 2.37207C15.0268 2.30511 15.6496 2.13769 16.2723 1.86984Z" fill="white"/>
</svg>
