<svg width="17" height="16" viewBox="0 0 17 16" fill="none" xmlns="http://www.w3.org/2000/svg">
<path d="M11.0689 13.8386C10.7877 12.2247 10.3189 10.5573 9.66267 8.83636H9.64258L9.62249 8.8464C9.51535 8.88658 9.37137 8.9435 9.19057 9.01716C9.00977 9.08412 8.6716 9.24819 8.17606 9.50935C7.68052 9.76381 7.22182 10.0384 6.79994 10.333C6.37807 10.621 5.93945 11.0027 5.4841 11.4781C5.02874 11.9535 4.68387 12.4491 4.4495 12.9647L4.29883 12.8542C5.53097 13.8587 6.93053 14.3609 8.49749 14.3609C9.38142 14.3609 10.2386 14.1868 11.0689 13.8386ZM9.21066 7.74149C9.07003 7.41336 8.89258 7.04171 8.67829 6.62653C6.5957 7.2493 4.34236 7.56069 1.91825 7.56069C1.91155 7.60756 1.9082 7.67787 1.9082 7.77162C1.9082 8.60198 2.05552 9.39551 2.35017 10.1522C2.64481 10.9022 3.05999 11.5752 3.5957 12.1712C3.93052 11.5752 4.34236 11.0194 4.83119 10.5038C5.32673 9.98145 5.80552 9.56292 6.26758 9.24819C6.72963 8.93345 7.1649 8.66225 7.57338 8.43457C7.98856 8.20689 8.32338 8.04618 8.57785 7.95243L8.9495 7.82185C8.97628 7.81515 9.01981 7.80511 9.08008 7.79171C9.14035 7.77162 9.18387 7.75488 9.21066 7.74149ZM8.13588 5.61203C7.33231 4.18569 6.51535 2.92006 5.68499 1.81515C4.76088 2.25042 3.9774 2.87319 3.33454 3.68345C2.69169 4.49372 2.26311 5.40444 2.04883 6.4156C4.07115 6.4156 6.10017 6.14774 8.13588 5.61203ZM15.0064 8.81627C13.6002 8.41448 12.2307 8.31738 10.8982 8.52497C11.4807 10.1254 11.9093 11.6957 12.1839 13.2359C12.9272 12.7337 13.5466 12.1009 14.0421 11.3375C14.5377 10.5674 14.8591 9.72698 15.0064 8.81627ZM6.92048 1.37319C6.91378 1.37319 6.90709 1.37653 6.90039 1.38323C6.90709 1.37653 6.91378 1.37319 6.92048 1.37319ZM12.8468 2.82966C11.608 1.73144 10.1582 1.18234 8.49749 1.18234C7.98856 1.18234 7.46959 1.24595 6.94057 1.37319C7.8178 2.51158 8.64146 3.7906 9.41155 5.21024C9.87361 5.03613 10.3089 4.83524 10.7174 4.60756C11.1258 4.37319 11.4473 4.1656 11.6816 3.98479C11.9227 3.80399 12.1437 3.61314 12.3446 3.41225C12.5455 3.21136 12.6694 3.07743 12.7162 3.01046C12.7698 2.9368 12.8133 2.87653 12.8468 2.82966ZM15.0868 7.70131C15.0667 6.14774 14.5678 4.77497 13.5901 3.58301L13.5801 3.59305C13.5198 3.67341 13.4562 3.75711 13.3892 3.84417C13.3223 3.92452 13.1749 4.07185 12.9473 4.28613C12.7263 4.50042 12.4886 4.70466 12.2341 4.89886C11.9863 5.08636 11.6515 5.30399 11.2296 5.55176C10.8145 5.79283 10.3758 6.00711 9.91378 6.19461C10.0812 6.54953 10.2285 6.86761 10.3557 7.14886C10.3691 7.18234 10.3892 7.23926 10.416 7.31961C10.4495 7.39997 10.4763 7.45689 10.4964 7.49037C10.7374 7.45689 10.9852 7.43345 11.2397 7.42006C11.5008 7.40667 11.7486 7.39997 11.983 7.39997C12.2174 7.39997 12.4484 7.40667 12.6761 7.42006C12.9037 7.42676 13.118 7.44015 13.3189 7.46024C13.5198 7.47363 13.7073 7.49037 13.8814 7.51046C14.0622 7.53055 14.2229 7.55399 14.3636 7.58078C14.5109 7.60086 14.6348 7.62095 14.7352 7.64104C14.8357 7.65444 14.9194 7.66783 14.9863 7.68122L15.0868 7.70131ZM15.1772 3.90444C15.8669 5.08301 16.2118 6.37207 16.2118 7.77162C16.2118 9.17118 15.8669 10.4636 15.1772 11.6489C14.4874 12.8274 13.5499 13.7616 12.3647 14.4513C11.1861 15.141 9.89704 15.4859 8.49749 15.4859C7.09794 15.4859 5.80552 15.141 4.62026 14.4513C3.44169 13.7616 2.50753 12.8274 1.8178 11.6489C1.12807 10.4636 0.783203 9.17118 0.783203 7.77162C0.783203 6.37207 1.12807 5.08301 1.8178 3.90444C2.50753 2.71917 3.44169 1.78167 4.62026 1.09194C5.80552 0.402204 7.09794 0.0573374 8.49749 0.0573374C9.89704 0.0573374 11.1861 0.402204 12.3647 1.09194C13.5499 1.78167 14.4874 2.71917 15.1772 3.90444Z" fill="white"/>
</svg>
